HIERARCHY
ROOT Pelvis
{
	OFFSET 0.000000 0.000000 0.000000
	CHANNELS 6 Xposition Yposition Zposition Zrotation Yrotation Xrotation
	JOINT L_Hip
	{
		OFFSET 1.145904 0.000000 0.000000
		CHANNELS 3 Zrotation Yrotation Xrotation
		JOINT L_Knee
		{
			OFFSET 0.000000 -0.372000 0.000000
			CHANNELS 3 Zrotation Yrotation Xrotation
			JOINT L_Ankle
			{
				OFFSET 0.000000 -0.438866 0.000000
				CHANNELS 3 Zrotation Yrotation Xrotation
				JOINT L_Foot
				{
					OFFSET 0.000000 0.000000 0.147370
					CHANNELS 3 Zrotation Yrotation Xrotation
					End Site
					{
						OFFSET 0.000000 0.000000 0.000000
					}
				}
			}
		}
	}
	JOINT R_Hip
	{
		OFFSET -1.153918 0.000000 0.000000
		CHANNELS 3 Zrotation Yrotation Xrotation
		JOINT R_Knee
		{
			OFFSET 0.000000 -0.374561 0.000000
			CHANNELS 3 Zrotation Yrotation Xrotation
			JOINT R_Ankle
			{
				OFFSET 0.000000 -0.417425 0.000000
				CHANNELS 3 Zrotation Yrotation Xrotation
				JOINT R_Foot
				{
					OFFSET 0.000000 0.000000 0.143055
					CHANNELS 3 Zrotation Yrotation Xrotation
					End Site
					{
						OFFSET 0.000000 0.000000 0.000000
					}
				}
			}
		}
	}
	JOINT Spine1
	{
		OFFSET 0.000000 0.949378 0.000000
		CHANNELS 3 Zrotation Yrotation Xrotation
		JOINT Spine2
		{
			OFFSET 0.000000 0.157766 0.000000
			CHANNELS 3 Zrotation Yrotation Xrotation
			JOINT Spine3
			{
				OFFSET 0.000000 0.067774 0.000000
				CHANNELS 3 Zrotation Yrotation Xrotation
				JOINT Neck
				{
					OFFSET 0.000000 0.226163 0.000000
					CHANNELS 3 Zrotation Yrotation Xrotation
					JOINT Head
					{
						OFFSET 0.000000 0.000000 0.071813
						CHANNELS 3 Zrotation Yrotation Xrotation
						End Site
						{
							OFFSET 0.000000 0.000000 0.000000
						}
					}
				}
				JOINT L_Collar
				{
					OFFSET 0.152830 0.000000 0.000000
					CHANNELS 3 Zrotation Yrotation Xrotation
					JOINT L_Shoulder
					{
						OFFSET 0.000000 -0.131657 0.000000
						CHANNELS 3 Zrotation Yrotation Xrotation
						JOINT L_Elbow
						{
							OFFSET 0.000000 -0.285938 0.000000
							CHANNELS 3 Zrotation Yrotation Xrotation
							JOINT L_Wrist
							{
								OFFSET 0.000000 -0.255490 0.000000
								CHANNELS 3 Zrotation Yrotation Xrotation
								End Site
								{
									OFFSET 0.000000 0.000000 0.000000
								}
							}
						}
					}
				}
				JOINT R_Collar
				{
					OFFSET -0.161580 0.000000 0.000000
					CHANNELS 3 Zrotation Yrotation Xrotation
					JOINT R_Shoulder
					{
						OFFSET 0.000000 -0.120310 0.000000
						CHANNELS 3 Zrotation Yrotation Xrotation
						JOINT R_Elbow
						{
							OFFSET 0.000000 -0.290046 0.000000
							CHANNELS 3 Zrotation Yrotation Xrotation
							JOINT R_Wrist
							{
								OFFSET 0.000000 -0.260457 0.000000
								CHANNELS 3 Zrotation Yrotation Xrotation
								End Site
								{
									OFFSET 0.000000 0.000000 0.000000
								}
							}
						}
					}
				}
			}
		}
	}
}
MOTION
Frames: 5
Frame Time: 0.05000000
0.000000 2.005800 0.000000 0.000000 -0.000000 0.000000 -57.377755 2.713880 -2.949027 61.327770 -3.158910 4.748992 -9.839712 0.677102 9.698382 6.706944 20.686456 6.472233 54.544047 0.812057 1.511268 -64.848193 -2.558246 -27.799022 14.122314 -5.703285 44.145859 -4.389017 -22.860896 14.516525 0.502263 2.387822 -24.449497 -0.020748 0.625778 38.774625 -1.503065 -0.678333 -7.050240 -0.379292 0.286005 -9.693791 2.987617 -1.226222 -55.844402 55.057308 2.110017 2.206164 29.036866 -1.022140 -2.726850 -73.271237 1.565445 6.988833 -9.271866 0.254431 -34.730074 -57.598972 -3.569854 1.151579 -24.894812 10.040552 3.868925 74.512774 6.183234 2.819151 2.055551 -0.562221 -29.657897
-0.000286 1.881282 -0.017192 0.000000 -0.240921 0.000000 -57.956402 4.901738 -5.123832 62.246519 -5.317084 8.480980 -9.522166 -0.046254 7.705939 4.875866 22.217671 4.243468 53.205241 3.284126 1.753371 -62.345974 -3.013404 -29.380175 12.017854 -4.071853 28.333320 -8.328842 -24.384018 14.620421 0.846544 2.873581 -23.529090 -1.257130 0.206967 40.176689 -0.782112 0.175697 -7.818130 0.138524 0.695456 -8.252461 2.635428 -0.524643 -53.427830 55.546230 1.234023 1.679650 29.239121 1.745563 -2.929783 -74.831682 2.913974 3.302460 -11.385795 -0.893606 -36.988562 -56.961220 -2.711914 -0.302487 -23.499126 10.253112 6.286912 75.845433 7.410240 4.637437 0.317268 -0.381575 -27.437319
-0.001193 1.613598 -0.030768 0.000000 -0.197931 0.000000 -58.251098 7.039072 -5.496103 61.702447 -7.013102 10.892283 -9.174864 -0.228108 7.519581 3.391582 21.340164 2.225872 54.925192 3.054501 2.856184 -60.483381 -2.994489 -27.324990 9.852241 -3.083661 13.108813 -11.107901 -21.837032 15.712770 1.635062 2.679282 -21.756560 -1.839469 1.221672 36.841289 -0.514364 0.764254 -4.791995 0.213280 0.689521 -8.383557 1.910190 0.446975 -53.056817 55.898828 1.592541 1.632278 29.681212 3.246483 -4.099955 -76.403015 2.868838 1.149095 -11.700023 0.234516 -40.229592 -56.963187 -2.140515 -0.450340 -25.239861 9.788862 6.321475 77.685615 7.483671 5.955330 -1.806223 -1.581892 -25.591049
-0.003287 1.295467 -0.039587 0.000000 0.116289 0.000000 -57.734332 7.632616 -5.833849 61.631618 -7.612188 12.176529 -10.042127 -1.039480 9.395322 3.288820 20.853829 -0.063202 55.465285 3.604725 2.624450 -60.371960 -2.844891 -26.466023 9.410862 -2.970785 9.062208 -11.991883 -18.632428 16.865537 3.140966 2.013335 -21.783818 -3.711965 1.173997 37.910429 -0.742787 0.418407 -5.644727 0.668300 0.399605 -8.140467 1.899005 -0.268880 -53.566254 55.559235 1.740716 1.201596 30.659811 1.946381 -3.857230 -75.672410 2.691218 -0.610473 -12.176777 0.202042 -41.499683 -57.167956 -2.353234 -0.191759 -26.197705 10.214740 6.433126 77.895671 7.171252 6.765163 -1.872923 -2.058409 -24.414419
-0.007602 1.110979 -0.043688 0.000000 0.344190 0.000000 -58.323470 8.736864 -5.807179 62.780155 -8.669656 12.385235 -10.198283 -0.462766 15.033654 1.745124 21.204001 -1.283042 54.692183 2.595185 2.254375 -59.380435 -2.050616 -26.867886 9.059201 -2.860287 13.791966 -10.109214 -15.920143 17.577099 3.352018 2.006583 -20.787903 -4.244994 0.976883 37.163766 -1.222383 -0.118073 -6.101364 0.947649 0.467443 -8.667575 1.899600 -0.885194 -53.639036 55.441124 2.490979 2.140292 29.650743 0.404392 -3.107348 -74.918187 1.341190 -1.029785 -11.858554 0.388662 -43.813024 -57.212957 -2.357357 -0.146278 -25.193776 10.870332 6.050188 76.493413 7.344649 8.774737 -1.728467 -1.772126 -24.627145
